:SAMPLES-PER-SECOND 30
:FULLY-SPECIFIED
:DEGREES
212
root  -3.74543 34.4229 -7.44903 4.8975 -46.7283 1.12117
RightUpLeg  -12.3953 -8.59296 -4.18812
RightLeg  16.1475 -2.94921 -0.651672
RightFoot  2.62918 -0.00763877 0.100581
RightToes  -26.0699 -0.123138 -0.224607
Spine  1.05808 4.04653 -0.391574
Spine1  1.99513 8.51957 -0.234428
HEad  -52.0078 -14.3564 4.97253
LeftShoulder1  -1.94126e-019 -3.10601e-018 -2.51263e-017
LeftArm  -1.13303 15.4605 -82.2903
LeftForeArm  38.4592 -14.4078 -2.53218
LeftHand  -0.428471 -2.28967 6.68235
RightShoulder  -4.96962e-017 0 -2.36833e-017
RightArm  -3.93048 6.75006 82.9891
RightForeArm  35.2699 40.3033 7.18184
RightHand  0.510464 -7.80183 -24.632
LeftUpLeg  -16.0818 1.56703 -1.26863
LeftLeg  16.737 15.4894 3.5413
LeftFoot  4.85682 -0.0616154 1.60427
LeftToes  -17.1331 1.34695e-006 1.12385e-007
213
root  -3.59549 34.379 -7.6595 6.64541 -45.0127 0.327129
RightUpLeg  -13.8622 -10.1334 -3.30085
RightLeg  16.5012 -3.14915 -0.716298
RightFoot  2.61575 -0.00625651 0.0957632
RightToes  -26.1686 -0.122659 -0.22424
Spine  1.1729 3.72477 -0.350486
Spine1  2.21727 7.89275 -0.178368
HEad  -51.8447 -15.0395 4.86535
LeftShoulder1  -1.94126e-019 -3.10601e-018 -2.51263e-017
LeftArm  -4.24458 15.035 -82.3083
LeftForeArm  37.0854 -14.6258 -2.52463
LeftHand  -0.424057 -1.89756 6.94175
RightShoulder  -4.96962e-017 0 -2.36833e-017
RightArm  -9.01218 2.93099 81.4572
RightForeArm  38.7652 59.7549 15.672
RightHand  0.224678 -6.96875 -17.6215
LeftUpLeg  -18.7111 1.8287 -0.795401
LeftLeg  18.3008 13.5271 3.48873
LeftFoot  4.62865 -0.0497405 1.37534
LeftToes  -17.133 1.34695e-006 1.12385e-007
214
root  -3.4958 34.3431 -7.82591 7.72126 -42.923 -0.159205
RightUpLeg  -14.5771 -12.1214 -2.634
RightLeg  16.5403 -3.20602 -0.731517
RightFoot  2.4743 -0.00569008 0.103611
RightToes  -25.9655 -0.122118 -0.223724
Spine  1.21068 2.76434 -0.0775303
Spine1  2.30566 5.9676 0.342627
HEad  -49.6726 -13.8086 2.76337
LeftShoulder1  -1.94126e-019 -3.10601e-018 -2.51263e-017
LeftArm  -7.69284 16.1391 -82.6189
LeftForeArm  33.4059 -15.3264 -2.51621
LeftHand  -0.445945 -1.30504 7.88828
RightShoulder  -4.96962e-017 0 -2.36833e-017
RightArm  -10.4469 4.23719 81.0849
RightForeArm  49.555 70.1919 26.0431
RightHand  0.36459 -8.60272 -14.0416
LeftUpLeg  -20.45 1.6544 -0.491661
LeftLeg  19.0735 11.6981 3.19203
LeftFoot  4.62523 -0.0426839 1.21846
LeftToes  -17.0725 1.34695e-006 1.12385e-007
215
root  -3.42524 34.3236 -7.97175 8.11567 -41.4715 -0.28766
RightUpLeg  -15.0458 -13.0302 -2.32725
RightLeg  16.8446 -3.68188 -0.860515
RightFoot  2.44344 -0.00394533 0.095476
RightToes  -26.2912 -0.121526 -0.22309
Spine  1.32589 2.20443 -0.0690349
Spine1  2.50983 4.90464 0.287987
HEad  -47.0581 -12.6121 1.12953
LeftShoulder1  -1.94126e-019 -3.10601e-018 -2.51263e-017
LeftArm  -8.76082 17.322 -82.4116
LeftForeArm  29.4939 -17.5436 -2.82256
LeftHand  -0.444084 -0.76264 8.50242
RightShoulder  -4.96962e-017 0 -2.36833e-017
RightArm  -11.7735 6.66842 81.8708
RightForeArm  52.5162 71.7116 28.5178
RightHand  0.500681 -9.01843 -16.6355
LeftUpLeg  -21.2674 0.82843 -0.306819
LeftLeg  19.1986 11.0975 3.05624
LeftFoot  5.01634 -0.0473278 1.25435
LeftToes  -17.7255 1.34695e-006 1.12385e-007
216
root  -3.37357 34.3286 -8.12052 8.72551 -41.0577 -0.482849
RightUpLeg  -15.8468 -12.7111 -1.94922
RightLeg  17.1507 -4.36208 -1.04368
RightFoot  2.54084 -0.000751196 0.0673345
RightToes  -25.7648 -0.120897 -0.222373
Spine  1.46054 2.33593 -0.191202
Spine1  2.75373 5.21593 -0.00153041
HEad  -45.3211 -13.1779 1.15858
LeftShoulder1  -1.94126e-019 -3.10601e-018 -2.51263e-017
LeftArm  -7.81324 17.2895 -82.229
LeftForeArm  27.7861 -18.5925 -3.02493
LeftHand  -0.43233 -0.49915 8.6278
RightShoulder  -4.96962e-017 0 -2.36833e-017
RightArm  -11.8479 7.04746 81.5983
RightForeArm  50.7624 69.9105 25.3228
RightHand  1.29565 -12.4055 -21.4595
LeftUpLeg  -21.8997 -0.0158411 0.0435184
LeftLeg  18.9515 11.5035 3.11364
LeftFoot  5.48112 -0.0590855 1.39584
LeftToes  -18.1677 1.34695e-006 1.12385e-007
217
root  -3.32189 34.3362 -8.27709 9.40225 -41.1835 -0.621324
RightUpLeg  -16.7016 -12.5124 -1.57527
RightLeg  17.1046 -4.42292 -1.05442
RightFoot  2.79494 0.00240962 0.0402198
RightToes  -25.6737 -0.120244 -0.221606
Spine  1.56575 2.71759 -0.423212
Spine1  2.94147 5.97203 -0.458135
HEad  -44.2569 -14.661 2.40423
LeftShoulder1  -1.94126e-019 -3.10601e-018 -2.51263e-017
LeftArm  -5.604 16.1586 -81.8942
LeftForeArm  28.4715 -18.2698 -3.01154
LeftHand  -0.418778 -0.766562 8.01903
RightShoulder  -4.96962e-017 0 -2.36833e-017
RightArm  -12.818 5.77916 80.744
RightForeArm  43.2539 63.7454 18.4883
RightHand  1.35535 -13.3587 -19.8393
LeftUpLeg  -22.4924 -0.728099 0.379754
LeftLeg  18.5491 12.3232 3.24017
LeftFoot  5.99529 -0.0748434 1.5907
LeftToes  -18.434 1.34695e-006 1.12385e-007
218
root  -3.27393 34.3305 -8.4309 9.9489 -41.3612 -0.766704
RightUpLeg  -17.3656 -12.7358 -1.18486
RightLeg  16.9283 -4.04378 -0.951112
RightFoot  3.01247 0.00395012 0.036658
RightToes  -25.6067 -0.119579 -0.220821
Spine  1.7335 2.92563 -0.541363
Spine1  3.26004 6.37532 -0.691899
HEad  -43.3855 -15.511 3.36159
LeftShoulder1  -1.94126e-019 -3.10601e-018 -2.51263e-017
LeftArm  -4.84563 14.8314 -82.0274
LeftForeArm  31.9917 -17.0883 -2.79746
LeftHand  -0.414507 -1.48573 7.16342
RightShoulder  -4.96962e-017 0 -2.36833e-017
RightArm  -14.8783 8.01077 80.6647
RightForeArm  37.0362 47.7624 9.55652
RightHand  0.190092 -7.03148 -14.8079
LeftUpLeg  -23.0347 -0.947917 0.652791
LeftLeg  18.3137 12.752 3.29558
LeftFoot  6.33457 -0.0848527 1.71148
LeftToes  -18.4895 1.34695e-006 1.12385e-007
219
root  -3.20034 34.2943 -8.58351 10.52 -41.1958 -0.88862
RightUpLeg  -18.2837 -13.1416 -0.813558
RightLeg  17.2318 -3.81075 -0.917883
RightFoot  2.97744 0.00321329 0.0658856
RightToes  -25.7413 -0.118916 -0.220051
Spine  1.92283 3.1356 -0.504365
Spine1  3.61766 6.8994 -0.695509
HEad  -43.353 -15.6784 3.2408
LeftShoulder1  -1.94126e-019 -3.10601e-018 -2.51263e-017
LeftArm  -4.07772 13.803 -82.3974
LeftForeArm  34.6319 -16.9246 -2.73501
LeftHand  -0.429082 -1.90828 7.0124
RightShoulder  -4.96962e-017 0 -2.36833e-017
RightArm  -11.1206 12.5947 80.8549
RightForeArm  39.7024 30.4535 4.38989
RightHand  -0.310733 -3.95423 -24.5308
LeftUpLeg  -23.9746 -0.733745 0.784079
LeftLeg  18.5963 12.3969 3.27003
LeftFoot  6.45043 -0.0867747 1.71137
LeftToes  -18.6753 1.34695e-006 1.12385e-007
220
root  -3.09248 34.2597 -8.73734 11.1109 -40.6826 -1.00839
RightUpLeg  -19.3497 -13.5662 -0.458426
RightLeg  17.8163 -3.89298 -0.97995
RightFoot  2.82291 0.00422093 0.0702808
RightToes  -25.3806 -0.118268 -0.219331
Spine  2.25198 3.60129 -0.406431
Spine1  4.29622 7.79286 -0.474496
HEad  -44.6338 -16.8989 3.2679
LeftShoulder1  -1.94126e-019 -3.10601e-018 -2.51263e-017
LeftArm  -1.68232 12.544 -82.6504
LeftForeArm  34.0867 -18.4724 -2.93476
LeftHand  -0.438231 -2.01583 7.06209
RightShoulder  -4.96962e-017 0 -2.36833e-017
RightArm  -6.80533 10.3826 78.3991
RightForeArm  41.6758 36.2469 5.67385
RightHand  0.593928 -7.39156 -33.3254
LeftUpLeg  -25.1017 -0.471729 0.840188
LeftLeg  19.0091 11.6258 3.15867
LeftFoot  6.57242 -0.0850806 1.64324
LeftToes  -18.8955 1.34695e-006 1.12385e-007
221
root  -2.98091 34.2443 -8.8608 11.88 -39.2844 -1.01509
RightUpLeg  -20.3965 -14.6759 -0.100381
RightLeg  18.1503 -4.13196 -1.06567
RightFoot  2.78525 0.00581654 0.066218
RightToes  -25.3345 -0.117647 -0.218693
Spine  2.45076 3.98219 -0.507055
Spine1  4.67928 8.58259 -0.687762
HEad  -45.6696 -18.8502 4.03227
LeftShoulder1  -1.94126e-019 -3.10601e-018 -2.51263e-017
LeftArm  -0.130456 11.7715 -82.4516
LeftForeArm  31.956 -21.1011 -3.25791
LeftHand  -0.421861 -1.93715 6.87239
RightShoulder  -4.96962e-017 0 -2.36833e-017
RightArm  -10.377 4.46874 76.6501
RightForeArm  41.6498 54.1582 11.9945
RightHand  0.551762 -7.47998 -30.0402
LeftUpLeg  -26.4131 -0.924728 0.85795
LeftLeg  19.1193 10.7237 2.93877
LeftFoot  6.91185 -0.0870294 1.60259
LeftToes  -19.1191 1.34695e-006 1.12385e-007
222
root  -2.91584 34.2373 -8.94102 12.3859 -37.5703 -0.921183
RightUpLeg  -20.9558 -15.8243 0.137076
RightLeg  18.2544 -4.61234 -1.19806
RightFoot  2.62513 0.00720573 0.064896
RightToes  -25.219 -0.117065 -0.21817
Spine  2.6012 3.57485 -0.297162
Spine1  4.99098 7.78729 -0.313373
HEad  -45.3624 -18.6727 3.06224
LeftShoulder1  -1.94126e-019 -3.10601e-018 -2.51263e-017
LeftArm  -1.47224 12.0263 -82.8449
LeftForeArm  29.5908 -22.5934 -3.37696
LeftHand  -0.411903 -1.72909 6.89461
RightShoulder  -4.96962e-017 0 -2.36833e-017
RightArm  -13.3034 2.77679 76.4903
RightForeArm  48.2516 67.7357 22.3421
RightHand  0.434438 -7.52494 -23.822
LeftUpLeg  -27.23 -1.59957 0.829852
LeftLeg  18.7748 9.76615 2.61659
LeftFoot  7.3392 -0.0895788 1.55822
LeftToes  -19.8885 1.34695e-006 1.12385e-007
